<svg
      width="192"
      height="136"
      viewBox="0 0 192 136"
      fill="none"
      xmlns="http://www.w3.org/2000/svg"
    >
      <style>g { mix-blend-mode: multiply; }</style>
      <g>
        <path
          fill-rule="evenodd"
          clip-rule="evenodd"
          d="M161.281 90.9986C157.924 91.0377 154.668 90.2675 151.458 89.1919C146.862 87.6523 142.263 86.1234 137.697 84.459C134.779 83.3962 131.84 82.3219 129.054 80.8517C125.263 78.8521 121.782 76.1836 118.702 72.7509C115.866 69.5908 113.498 66.0151 111.632 61.9607C109.964 58.3359 108.825 54.475 108.105 50.3828C107.263 45.5919 107.133 40.7903 107.63 35.99C108.038 32.0468 108.978 28.2169 110.349 24.582C112.828 18.0101 116.448 12.4983 121.23 8.21658C124.292 5.47586 127.658 3.36367 131.347 1.98589C134.555 0.7875 137.83 0.185945 141.138 0.0220682C143.772 -0.108763 146.404 0.357914 149.011 1.00398C152.123 1.77548 155.065 3.09998 157.849 4.86958C162.208 7.63997 165.896 11.4253 168.937 16.1541C171.377 19.9476 173.198 24.1591 174.747 28.542C175.453 30.5402 175.839 32.705 176.367 34.7949C177.105 37.7076 177.863 40.6143 178.571 43.5377C179.231 46.2616 179.873 48.9935 180.458 51.7417C181.198 55.2249 181.933 58.7081 182.21 62.3141C182.472 65.7204 182.35 69.0937 181.709 72.4057C181.056 75.7877 179.815 78.8717 178.044 81.6293C175.271 85.9508 171.662 88.7164 167.333 90.1475C165.352 90.8023 163.325 90.9986 161.281 90.9986Z"
          fill="#96CAD1"
        />
      </g>
      <g>
        <path
          fill-rule="evenodd"
          clip-rule="evenodd"
          d="M35.5061 73.1584C32.6194 40.6611 67.7969 22.8967 95.7031 26.4475C117.91 29.2726 169.415 38.4994 151.697 72.0544C145.246 84.2704 132.33 93.6263 122.775 103.382C111.821 114.567 100.658 130.365 84.8059 134.641C51.4125 143.648 39.9096 106.167 35.5061 73.1584Z"
          fill="#E6A386"
        />
      </g>
      <g opacity="0.365699">
        <path
          fill-rule="evenodd"
          clip-rule="evenodd"
          d="M33.5357 127.522C35.2711 126.038 36.4201 124.514 37.2632 122.735C37.8804 121.432 38.3135 120.078 38.5721 118.678C38.8367 117.244 38.9432 115.786 38.9189 114.325C38.8835 112.202 38.6487 110.107 38.2004 108.032C37.702 105.725 36.873 103.553 35.5965 101.575C35.1278 100.849 34.617 100.13 33.9473 99.5507C33.4406 99.1124 32.9982 98.5887 32.4527 98.2093C31.6591 97.6573 30.8258 97.1455 29.9598 96.7151C28.2184 95.8489 26.3448 95.5141 24.4005 95.6266C23.3367 95.6879 22.2628 95.7467 21.2186 95.9444C20.1355 96.1496 19.0797 96.5095 18.0181 96.8236C17.119 97.0893 16.2239 97.3703 15.3366 97.6735C14.0393 98.1169 12.7173 98.51 11.4663 99.0628C9.87316 99.7666 8.26835 100.485 6.92515 101.641C5.62289 102.762 4.57569 104.09 3.99303 105.708C3.48294 107.125 3.41217 108.594 3.68811 110.089C3.99266 111.74 4.78244 113.143 5.82654 114.395C6.5893 115.309 7.48584 116.112 8.4472 116.833C9.23909 117.427 10.0464 118.009 10.7766 118.673C11.5454 119.372 12.3284 120.068 12.9484 120.916C13.8281 122.12 14.704 123.327 15.6041 124.515C16.3953 125.559 17.3212 126.477 18.313 127.334C19.1265 128.037 20.0295 128.6 21.0056 129.027C22.8411 129.829 24.7409 130.323 26.789 130.114C28.0068 129.99 29.2082 129.828 30.3428 129.346C30.8957 129.112 31.4424 128.852 31.9599 128.548C32.5899 128.179 33.186 127.752 33.5357 127.522Z"
          fill="#7A1D47"
        />
      </g>
      <path
        fill-rule="evenodd"
        clip-rule="evenodd"
        d="M130.807 119.149H60.2638L50.4385 83.625L112.919 48.6055L130.807 119.149Z"
        fill="white"
      />
      <path
        fill-rule="evenodd"
        clip-rule="evenodd"
        d="M136.998 115.758L58.7196 115.125L49.4658 80.0995L117.217 40.8867L136.998 115.758Z"
        stroke="#353E48"
        stroke-width="3.2"
        stroke-linecap="round"
        stroke-linejoin="bevel"
      />
      <path
        d="M122.119 29L147.131 123.671"
        stroke="#353E48"
        stroke-width="3.2"
        stroke-linecap="round"
        stroke-linejoin="bevel"
      />
      <path
        d="M41.7075 75.623L54.185 122.849"
        stroke="#353E48"
        stroke-width="3.2"
        stroke-linecap="round"
        stroke-linejoin="bevel"
      />
      <path
        d="M51.533 116.664L35.2392 120.969C32.2658 121.755 29.1893 119.964 28.4034 116.991L22.1851 93.4514C21.3992 90.4779 23.1893 87.4021 26.1627 86.6168L42.4571 82.3115"
        stroke="#353E48"
        stroke-width="3.2"
        stroke-linecap="round"
        stroke-linejoin="bevel"
      />
      <path
        d="M112.032 116.615L111.518 130.02L73.7852 128.574L74.2991 115.169"
        stroke="#353E48"
        stroke-width="3.2"
        stroke-linecap="round"
        stroke-linejoin="bevel"
      />
      <path
        d="M143.724 57.1881L144.159 56.8406L144.593 56.4905L145.036 56.152L145.474 55.807L145.904 55.4512L146.337 55.0992L146.773 54.7491L147.211 54.4029L147.646 54.0521L148.082 53.7014L148.506 53.3462L148.942 53.0057L149.378 52.664L149.809 52.3158L150.24 51.9664L150.671 51.6176L151.108 51.2726L151.536 50.9174L151.97 50.568L152.41 50.2262L152.838 49.8665L153.285 49.5286L153.719 49.1753L154.156 48.8272L154.59 48.4771L155.023 48.1251L155.463 47.7827L155.887 47.4217L156.321 47.0729L156.759 46.7305L157.192 46.3811L157.622 46.0278L158.055 45.6771L158.488 45.3289L158.934 44.9923L159.36 44.6326L159.797 44.2851L160.242 43.9459L160.668 43.5811L161.116 43.2432L161.547 42.8854L161.977 42.5283L162.423 42.1904L162.855 41.8377L163.285 41.4819L163.722 41.1331L164.162 40.7881L164.591 40.4304L165.039 40.0918L165.47 39.7315L165.902 39.375L166.343 39.0294L166.782 38.6832L167.22 38.3337L167.651 37.9747L168.092 37.6297L168.529 37.2765L168.972 36.9321L169.4 36.5705L169.833 36.2198L170.277 35.8832L170.705 35.5267L171.143 35.1785L171.58 34.8278L172.019 34.4765L172.449 34.1161L172.89 33.7693L173.325 33.4153L173.767 33.0653L174.211 32.7209L174.65 32.3702L175.089 32.0144L175.525 31.6585L175.96 31.3008L176.402 30.9539L176.837 30.5929L177.284 30.2454L177.729 29.8947L178.162 29.5273"
        stroke="#353E48"
        stroke-width="3.2"
        stroke-linecap="round"
        stroke-linejoin="bevel"
      />
      <path
        d="M150.142 78.7393L150.689 78.7969L151.236 78.8519L151.785 78.8929L152.333 78.9569L152.882 79.0164L153.434 79.0586L153.984 79.1149L154.534 79.1738L155.083 79.2282L155.632 79.2801L156.182 79.3274L156.729 79.3908L157.277 79.4407L157.827 79.4932L158.378 79.5418L158.927 79.609L159.479 79.6589L160.029 79.7165L160.579 79.7709L161.13 79.8125L161.68 79.8663L162.23 79.929L162.78 79.9879L163.332 80.0321L163.883 80.0935L164.434 80.1421L164.985 80.1933L165.537 80.2471L166.088 80.3021L166.639 80.3559L167.188 80.4231L167.741 80.4749L168.291 80.5229L168.842 80.5709L169.391 80.626L169.944 80.6797L170.495 80.7444L171.046 80.802L171.6 80.8506L172.153 80.9031L172.705 80.9569L173.255 81.0145L173.809 81.0682L174.365 81.1226L174.922 81.1693L175.478 81.2295"
        stroke="#353E48"
        stroke-width="3.2"
        stroke-linecap="round"
        stroke-linejoin="bevel"
      />
      <path
        d="M146.934 67.9611L147.471 67.8146L147.999 67.6386L148.534 67.4869L149.07 67.3346L149.606 67.1816L150.139 67.0229L150.672 66.8603L151.201 66.685L151.743 66.548L152.275 66.3803L152.81 66.2222L153.344 66.0629L153.878 65.9003L154.411 65.7397L154.944 65.5752L155.478 65.4184L156.016 65.2757L156.544 65.0952L157.083 64.9525L157.618 64.7989L158.149 64.6274L158.683 64.4654L159.222 64.3182L159.751 64.1397L160.288 63.9906L160.824 63.8414L161.356 63.6789L161.886 63.5131L162.422 63.3659L162.948 63.1899L163.486 63.0504L164.017 62.8891L164.549 62.7317L165.081 62.5755L165.609 62.3995L166.146 62.2549L166.676 62.084L167.213 61.9413L167.743 61.7634L168.282 61.6162L168.819 61.4606L169.351 61.291L169.884 61.1278L170.421 60.9781L170.953 60.8123L171.491 60.6696L172.018 60.4898L172.557 60.3451L173.087 60.1698L173.627 60.0238L174.166 59.8702L174.698 59.6987L175.232 59.5349L175.773 59.3934L176.307 59.236L176.842 59.0741L177.376 58.9083L177.909 58.7349L178.448 58.587L178.986 58.4328L179.523 58.276L180.054 58.0955L180.595 57.9522L181.134 57.8005L181.663 57.6226L182.201 57.4664L182.738 57.3141L183.273 57.156L183.808 56.9928L184.342 56.8226L184.884 56.6779L185.418 56.5109L185.956 56.3483L186.491 56.18L187.034 56.0418L187.568 55.8741L188.109 55.7198L188.649 55.5598L189.184 55.3774L189.725 55.2168"
        stroke="#353E48"
        stroke-width="3.2"
        stroke-linecap="round"
        stroke-linejoin="bevel"
      />
    </svg>